<?xml version="1.0" encoding="UTF-8"?>
<svg width="173px" height="27px" viewBox="0 0 173 27" version="1.1" xmlns="http://www.w3.org/2000/svg" xmlns:xlink="http://www.w3.org/1999/xlink">
    <!-- Generator: Sketch 40.2 (33826) - http://www.bohemiancoding.com/sketch -->
    <title>Logo</title>
    <desc>Created with Sketch.</desc>
    <defs></defs>
    <g id="Symbols" stroke="none" stroke-width="1" fill="none" fill-rule="evenodd">
        <g id="NAVIGATION---Dropdown" transform="translate(-381.000000, -79.000000)">
            <g id="Logo">
                <g transform="translate(380.569841, 79.096951)">
                    <path d="M47.7687254,23.4887113 L55.8725397,23.4887113 C59.3707095,23.5235915 62.3839302,22.3456268 62.3839302,18.3970141 C62.3839302,15.2451549 59.9937841,13.6170423 55.8725397,13.6170423 L47.7687254,13.6170423 L47.7687254,23.4887113 Z M47.7687254,11.6082676 L55.8725397,11.6082676 C59.6475095,11.6082676 61.4489063,9.73764085 61.4489063,7.4168662 C61.4489063,4.33449296 59.5437095,2.7758662 55.8725397,2.7758662 L47.7687254,2.7758662 L47.7687254,11.6082676 Z M45.4140032,0.766267606 L55.8725397,0.766267606 C60.0289333,0.766267606 63.8036286,2.22135211 63.8036286,6.82802113 C63.8036286,9.42619014 62.071981,11.8156268 59.5093841,12.3701408 L59.5093841,12.4393521 C62.6953302,12.855169 64.7383778,15.2451549 64.7383778,18.4662254 C64.7383778,20.8221549 63.9074286,25.4977606 55.8725397,25.4977606 L45.4140032,25.4977606 L45.4140032,0.766267606 L45.4140032,0.766267606 Z" id="Fill-4" fill="#41404A"></path>
                    <polygon id="Fill-6" fill="#41404A" points="67.6458762 0.766267606 84.7198778 0.766267606 84.7198778 2.7753169 70.0011476 2.7753169 70.0011476 11.7118099 83.7845794 11.7118099 83.7845794 13.7208592 70.0011476 13.7208592 70.0011476 23.4887113 84.8928778 23.4887113 84.8928778 25.4977606 67.6458762 25.4977606"></polygon>
                    <path d="M89.6704238,12.5085634 L98.4673365,12.5085634 C101.341333,12.5085634 103.800405,10.7071479 103.800405,7.69371127 C103.800405,4.6805493 101.999557,2.7753169 98.4673365,2.7753169 L89.6704238,2.7753169 L89.6704238,12.5085634 Z M87.3151524,0.766267606 L98.6403365,0.766267606 C102.726981,0.766267606 106.155402,2.74071127 106.155402,7.20923239 C106.155402,10.3270352 104.527554,12.8897746 101.341333,13.5135 L101.341333,13.5827113 C104.562154,13.9982535 105.496903,16.2152113 105.670452,19.1588873 C105.774802,20.8562113 105.774802,24.2505845 106.813076,25.4977606 L104.216154,25.4977606 C103.627405,24.5279789 103.627405,22.6922324 103.55793,21.6529648 C103.350056,18.1891056 103.073256,14.3440352 98.6054619,14.5176127 L89.6704238,14.5176127 L89.6704238,25.4977606 L87.3151524,25.4977606 L87.3151524,0.766267606 L87.3151524,0.766267606 Z" id="Fill-8" fill="#41404A"></path>
                    <polygon id="Fill-10" fill="#37C6F5" points="114.916067 5.33860563 107.504527 5.33860563 107.504527 0.765992958 127.7642 0.765992958 127.7642 5.33860563 120.352935 5.33860563 120.352935 25.4977606 114.916067 25.4977606"></polygon>
                    <polygon id="Fill-12" fill="#37C6F5" points="129.736675 0.766267606 148.230375 0.766267606 148.230375 5.33860563 135.174367 5.33860563 135.174367 10.6379366 147.1575 10.6379366 147.1575 14.8639437 135.174367 14.8639437 135.174367 20.9259718 148.507175 20.9259718 148.507175 25.4977606 129.736675 25.4977606"></polygon>
                    <path d="M167.795851,9.07958451 C167.449576,6.61983803 165.095129,4.74976056 162.393583,4.74976056 C157.51004,4.74976056 155.675141,8.90655634 155.675141,13.2355563 C155.675141,17.3577465 157.51004,21.5145423 162.393583,21.5145423 C165.718478,21.5145423 167.588251,19.2283732 168.003451,15.9721479 L173.268143,15.9721479 C172.713719,22.137993 168.4538,26.0866056 162.393583,26.0866056 C154.740392,26.0866056 150.237724,20.3714577 150.237724,13.2355563 C150.237724,5.89284507 154.740392,0.177697183 162.393583,0.177697183 C167.830725,0.177697183 172.402319,3.36416197 173.060268,9.07958451 L167.795851,9.07958451" id="Fill-14" fill="#37C6F5"></path>
                    <path d="M19.6856079,8.24822535 C18.8543841,4.43803521 15.7030381,2.25623239 12.1013429,2.25623239 C5.55562698,2.25623239 2.78488095,7.7288662 2.78488095,13.1320141 C2.78488095,18.5359859 5.55562698,24.0088944 12.1013429,24.0088944 C16.6723873,24.0088944 19.5818079,20.475 20.0318825,16.0765141 L22.3868794,16.0765141 C21.7286556,22.1374437 17.8847603,26.017669 12.1013429,26.017669 C4.30892857,26.017669 0.43015873,19.8864296 0.43015873,13.1320141 C0.43015873,6.37759859 4.30892857,0.246359155 12.1013429,0.246359155 C16.7761873,0.246359155 21.416981,3.05243662 22.0406048,8.24822535 L19.6856079,8.24822535" id="Fill-1" fill="#41404A"></path>
                    <polygon id="Fill-3" fill="#41404A" points="32.0130937 15.3143662 22.2814317 0.766267606 25.0865032 0.766267606 33.2251921 13.3053169 41.329281 0.766267606 44.1343524 0.766267606 34.3680905 15.3143662 34.3680905 25.4977606 32.0130937 25.4977606"></polygon>
                </g>
            </g>
        </g>
    </g>
</svg>